{
    "asset" : {
        "generator" : "Khronos glTF Blender I/O v1.6.16",
        "version" : "2.0"
    },
    "scene" : 0,
    "scenes" : [
        {
            "name" : "Scene",
            "nodes" : [
                0,
                1,
                2,
                3
            ]
        }
    ],
    "nodes" : [
        {
            "mesh" : 0,
            "name" : "geb\u00e4ude"
        },
        {
            "name" : "top",
            "scale" : [
                20.25066375732422,
                20.25066375732422,
                20.25066375732422
            ],
            "translation" : [
                0,
                0,
                -3.203360080718994
            ]
        },
        {
            "name" : "front",
            "rotation" : [
                0,
                0.7071067094802856,
                -0.7071068286895752,
                -3.0908616110991716e-08
            ],
            "scale" : [
                20,
                20,
                20
            ],
            "translation" : [
                2.3257102966308594,
                8.5,
                -51.30779266357422
            ]
        },
        {
            "name" : "back",
            "rotation" : [
                0.7071068286895752,
                0,
                0,
                0.7071067094802856
            ],
            "scale" : [
                20,
                20,
                20
            ],
            "translation" : [
                2.0974833965301514,
                8.575271606445312,
                -33.72390365600586
            ]
        }
    ],
    "meshes" : [
        {
            "name" : "Plane",
            "primitives" : [
                {
                    "attributes" : {
                        "POSITION" : 0,
                        "NORMAL" : 1,
                        "TEXCOORD_0" : 2
                    },
                    "indices" : 3
                }
            ]
        }
    ],
    "accessors" : [
        {
            "bufferView" : 0,
            "componentType" : 5126,
            "count" : 754,
            "max" : [
                48.54894256591797,
                19.100969314575195,
                38.9473991394043
            ],
            "min" : [
                -50.575286865234375,
                -0.056079864501953125,
                -45.3138427734375
            ],
            "type" : "VEC3"
        },
        {
            "bufferView" : 1,
            "componentType" : 5126,
            "count" : 754,
            "type" : "VEC3"
        },
        {
            "bufferView" : 2,
            "componentType" : 5126,
            "count" : 754,
            "type" : "VEC2"
        },
        {
            "bufferView" : 3,
            "componentType" : 5123,
            "count" : 1314,
            "type" : "SCALAR"
        }
    ],
    "bufferViews" : [
        {
            "buffer" : 0,
            "byteLength" : 9048,
            "byteOffset" : 0
        },
        {
            "buffer" : 0,
            "byteLength" : 9048,
            "byteOffset" : 9048
        },
        {
            "buffer" : 0,
            "byteLength" : 6032,
            "byteOffset" : 18096
        },
        {
            "buffer" : 0,
            "byteLength" : 2628,
            "byteOffset" : 24128
        }
    ],
    "buffers" : [
        {
            "byteLength" : 26756,
            "uri" : "data:application/octet-stream;base64,"
        }
    ]
}
