<svg width="1920" height="200" xmlns="http://www.w3.org/2000/svg" version="1.1">
 <g>
  <title>Layer 1</title>
  <path stroke="null" d="m0,171.04582l64,0.70053c64,0.64215 192,2.04321 320,-4.49506c128,-6.53827 256,-20.89911 384,-23.75961c128,-2.80212 256,5.9545 384,6.65503c128,0.64215 256,-6.7134 384,-2.45185c128,4.26155 256,20.25696 320,28.19629l64,7.99771l0,-183.88885l-64,0c-64,0 -192,0 -320,0c-128,0 -256,0 -384,0c-128,0 -256,0 -384,0c-128,0 -256,0 -384,0c-128,0 -256,0 -320,0l-64,0l0,171.04582z" fill="#fbac04" stroke-linecap="round" id="svg_1"/>
 </g>

</svg>