<svg id="visual" viewBox="0 0 960 540" width="960" height="540" xmlns="http://www.w3.org/2000/svg" xmlns:xlink="http://www.w3.org/1999/xlink" version="1.1"><path d="M0 27L22.8 27.7C45.7 28.3 91.3 29.7 137 31.3C182.7 33 228.3 35 274 36.8C319.7 38.7 365.3 40.3 411.2 47.2C457 54 503 66 548.8 64.7C594.7 63.3 640.3 48.7 686 47.3C731.7 46 777.3 58 823 62.5C868.7 67 914.3 64 937.2 62.5L960 61L960 0L937.2 0C914.3 0 868.7 0 823 0C777.3 0 731.7 0 686 0C640.3 0 594.7 0 548.8 0C503 0 457 0 411.2 0C365.3 0 319.7 0 274 0C228.3 0 182.7 0 137 0C91.3 0 45.7 0 22.8 0L0 0Z" fill="#fbac04" stroke-linecap="round" stroke-linejoin="miter"></path></svg>