<svg id="visual" viewBox="0 0 1920 500" width="1920" height="500" xmlns="http://www.w3.org/2000/svg" xmlns:xlink="http://www.w3.org/1999/xlink" version="1.1"><path d="M0 293L64 294.2C128 295.3 256 297.7 384 286.5C512 275.3 640 250.7 768 245.8C896 241 1024 256 1152 257.2C1280 258.3 1408 245.7 1536 253C1664 260.3 1792 287.7 1856 301.3L1920 315L1920 0L1856 0C1792 0 1664 0 1536 0C1408 0 1280 0 1152 0C1024 0 896 0 768 0C640 0 512 0 384 0C256 0 128 0 64 0L0 0Z" fill="#fbac04" stroke-linecap="round" stroke-linejoin="miter"></path></svg>