<svg id="visual" viewBox="0 0 1920 500" width="1920" height="500" xmlns="http://www.w3.org/2000/svg" xmlns:xlink="http://www.w3.org/1999/xlink" version="1.1">
  <path d="M0 25L45.7 25.5C91.3 26 182.7 27 274.2 31.5C365.7 36 457.3 44 548.8 51.5C640.3 59 731.7 66 823 67C914.3 68 1005.7 63 1097 62.2C1188.3 61.3 1279.7 64.7 1371.2 63C1462.7 61.3 1554.3 54.7 1645.8 47.7C1737.3 40.7 1828.7 33.3 1874.3 29.7L1920 26L1920 0L1874.3 0C1828.7 0 1737.3 0 1645.8 0C1554.3 0 1462.7 0 1371.2 0C1279.7 0 1188.3 0 1097 0C1005.7 0 914.3 0 823 0C731.7 0 640.3 0 548.8 0C457.3 0 365.7 0 274.2 0C182.7 0 91.3 0 45.7 0L0 0Z" fill="#fbac04" stroke-linecap="round" stroke-linejoin="miter"></path>
</svg>