<svg id="visual" viewBox="0 0 1920 500" width="1920" height="500" xmlns="http://www.w3.org/2000/svg" xmlns:xlink="http://www.w3.org/1999/xlink" version="1.1">
  <path d="M0 25L45.7 25.5C91.3 26 182.7 27 274.2 31.5C365.7 36 457.3 44 548.8 51.5C640.3 59 731.7 66 823 67C914.3 68 1005.7 63 1097 62.2C1188.3 61.3 1279.7 64.7 1371.2 63C1462.7 61.3 1554.3 54.7 1645.8 47.7C1737.3 40.7 1828.7 33.3 1874.3 29.7L1920 26L1920 0L1874.3 0C1828.7 0 1737.3 0 1645.8 0C1554.3 0 1462.7 0 1371.2 0C1279.7 0 1188.3 0 1097 0C1005.7 0 914.3 0 823 0C731.7 0 640.3 0 548.8 0C457.3 0 365.7 0 274.2 0C182.7 0 91.3 0 45.7 0L0 0Z" fill="#fbac04" stroke-linecap="round" stroke-linejoin="miter"></path>
  <path d="M0 473L45.7 472.5C91.3 472 182.7 471 274.2 466.5C365.7 462 457.3 454 548.8 446.5C640.3 439 731.7 432 823 431C914.3 430 1005.7 435 1097 435.8C1188.3 436.7 1279.7 433.3 1371.2 435C1462.7 436.7 1554.3 443.3 1645.8 450.3C1737.3 457.3 1828.7 464.7 1874.3 468.3L1920 472L1920 501L1874.3 501C1828.7 501 1737.3 501 1645.8 501C1554.3 501 1462.7 501 1371.2 501C1279.7 501 1188.3 501 1097 501C1005.7 501 914.3 501 823 501C731.7 501 640.3 501 548.8 501C457.3 501 365.7 501 274.2 501C182.7 501 91.3 501 45.7 501L0 501Z" fill="#fbac04" stroke-linecap="round" stroke-linejoin="miter"></path>
</svg>